<svg xmlns="http://www.w3.org/2000/svg" viewBox="0 0 640 320" width="640" height="320">
  <rect width="640" height="320" fill="#eef2f6"/>
  <path
    d="M-20 48 C80 28 140 96 240 88 C340 80 380 24 460 40 C540 56 600 96 680 84"
    fill="none"
    stroke="#d3e0ef"
    stroke-width="28"
    stroke-linecap="round"
  />
  <rect x="36" y="196" width="156" height="88" rx="6" fill="#d5eedd" stroke="#cdd6e1" stroke-width="1"/>
  <rect x="428" y="36" width="132" height="72" rx="6" fill="#d5eedd" stroke="#cdd6e1" stroke-width="1"/>
  <g fill="#e2e8ef" stroke="#cdd6e1" stroke-width="1">
    <rect x="24" y="24" width="72" height="44" rx="2"/>
    <rect x="108" y="24" width="88" height="44" rx="2"/>
    <rect x="208" y="24" width="64" height="44" rx="2"/>
    <rect x="284" y="24" width="56" height="44" rx="2"/>
    <rect x="352" y="24" width="64" height="44" rx="2"/>
    <rect x="572" y="24" width="44" height="44" rx="2"/>
    <rect x="24" y="80" width="56" height="52" rx="2"/>
    <rect x="92" y="80" width="80" height="52" rx="2"/>
    <rect x="184" y="80" width="96" height="52" rx="2"/>
    <rect x="292" y="80" width="72" height="52" rx="2"/>
    <rect x="376" y="80" width="40" height="52" rx="2"/>
    <rect x="572" y="80" width="44" height="52" rx="2"/>
    <rect x="24" y="148" width="72" height="36" rx="2"/>
    <rect x="108" y="148" width="64" height="36" rx="2"/>
    <rect x="184" y="148" width="88" height="36" rx="2"/>
    <rect x="284" y="148" width="80" height="36" rx="2"/>
    <rect x="376" y="148" width="96" height="36" rx="2"/>
    <rect x="484" y="148" width="76" height="36" rx="2"/>
    <rect x="572" y="148" width="44" height="36" rx="2"/>
    <rect x="204" y="200" width="68" height="40" rx="2"/>
    <rect x="284" y="200" width="80" height="40" rx="2"/>
    <rect x="376" y="200" width="52" height="40" rx="2"/>
    <rect x="440" y="200" width="72" height="40" rx="2"/>
    <rect x="524" y="200" width="40" height="40" rx="2"/>
    <rect x="572" y="200" width="44" height="40" rx="2"/>
    <rect x="24" y="256" width="88" height="40" rx="2"/>
    <rect x="124" y="256" width="68" height="40" rx="2"/>
    <rect x="204" y="256" width="68" height="40" rx="2"/>
    <rect x="284" y="256" width="52" height="40" rx="2"/>
    <rect x="348" y="256" width="80" height="40" rx="2"/>
    <rect x="440" y="256" width="72" height="40" rx="2"/>
    <rect x="524" y="256" width="92" height="40" rx="2"/>
  </g>
  <g fill="none" stroke="#163a64" stroke-opacity="0.35" stroke-linecap="square">
    <path d="M0 140 H640" stroke-width="8"/>
    <path d="M268 0 V320" stroke-width="8"/>
    <path d="M0 196 H640" stroke-width="5"/>
    <path d="M416 0 V320" stroke-width="5"/>
  </g>
  <g fill="none" stroke="#cdd6e1" stroke-linecap="square">
    <path d="M0 140 H640" stroke-width="5"/>
    <path d="M268 0 V320" stroke-width="5"/>
    <path d="M0 196 H640" stroke-width="3"/>
    <path d="M416 0 V320" stroke-width="3"/>
  </g>
</svg>
